<?xml version="1.0" encoding="UTF-8"?>
<svg version="1.1" xmlns="http://www.w3.org/2000/svg" width="1024" height="1024">
<path d="M0 0 C1.01449219 0.75152344 2.02898437 1.50304687 3.07421875 2.27734375 C10.04705217 7.50134061 16.66626792 13.00863182 23 19 C23.88300781 19.81855469 24.76601563 20.63710937 25.67578125 21.48046875 C36.37107341 31.72192956 44.45818197 43.46869841 51.65258789 56.36572266 C53.33549601 59.35337327 54.68243906 61.70699562 57.22265625 64.05078125 C59.7496631 66.822158 59.58004443 69.32150028 60 73 C60.85864174 75.39658865 61.78045036 77.7710934 62.75 80.125 C71.93846831 103.59738521 74.64428964 129.41125129 75.53515625 154.4296875 C75.57813339 155.58187775 75.62111053 156.73406799 75.66539001 157.9211731 C75.75500665 160.34306659 75.84316629 162.7650144 75.92993164 165.18701172 C76.06188561 168.85790797 76.19954668 172.52855837 76.33789062 176.19921875 C76.42482072 178.56769582 76.5114201 180.93618506 76.59765625 183.3046875 C76.65857201 184.92405716 76.65857201 184.92405716 76.72071838 186.57614136 C76.98422372 194.05340719 77.04414163 201.51839771 77 209 C73.7 209 70.4 209 67 209 C67 208.34 67 207.68 67 207 C58.51905222 207.28269826 51.6215749 207.97475734 45.0625 213.6875 C43.93605637 216.13917144 43.69947386 217.97375353 43.43359375 220.64453125 C43.35036865 221.45897705 43.26714355 222.27342285 43.18139648 223.11254883 C43.12153564 223.73540771 43.0616748 224.3582666 43 225 C44.30710937 224.97679687 45.61421875 224.95359375 46.9609375 224.9296875 C63.78187339 224.71887102 79.17562075 225.64181642 95.23046875 230.87890625 C98.89389933 231.96844467 102.21951025 232.56360105 106 233 C106 233.66 106 234.32 106 235 C106.84820313 235.44988281 107.69640625 235.89976562 108.5703125 236.36328125 C135.16449706 250.80307744 154.17713088 272.50485388 162.85400391 301.74926758 C169.53757479 326.61377988 166.3543194 354.96835947 153.56445312 377.25317383 C150.18532554 382.92203245 146.34274737 388.02916934 142 393 C141.43796875 393.69351562 140.8759375 394.38703125 140.296875 395.1015625 C124.39232125 414.35053175 100.23923104 424.72265125 75.9375 427.75 C74.29338411 427.86222634 72.64691019 427.94170229 71 428 C69.16308594 428.07734375 69.16308594 428.07734375 67.2890625 428.15625 C35.73142976 429.05789665 8.59395027 418.3329938 -14.328125 396.6953125 C-17.19026743 393.80806356 -19.59190835 390.85658851 -21.81640625 387.4609375 C-23.03448495 385.68957988 -23.03448495 385.68957988 -26 385 C-26.08765625 384.31550781 -26.1753125 383.63101562 -26.265625 382.92578125 C-27.17388625 379.30722978 -28.90131805 376.38623401 -30.75 373.1875 C-43.72041913 349.77627102 -45.19304814 322.64237252 -37.91015625 297.19140625 C-36.97900964 294.11298917 -36.01390072 291.05199556 -35 288 C-47.11365252 300.11365252 -51.93575411 318.49777969 -52.08984375 335.2421875 C-51.96909307 360.31465419 -41.46783076 383.76972392 -26 403 C-25.30777344 403.90492188 -25.30777344 403.90492188 -24.6015625 404.828125 C-21.23564652 409.12023263 -17.16494639 412.52061116 -13 416 C-12.28199219 416.6290625 -11.56398438 417.258125 -10.82421875 417.90625 C12.18991266 437.40057308 37.87003552 440.16236455 67 441 C48.76822482 462.53851871 48.76822482 462.53851871 37 465 C36.09701172 465.25523437 36.09701172 465.25523437 35.17578125 465.515625 C18.430873 469.24339632 0.45182399 465.57062015 -13.9375 456.4375 C-18.91969115 452.98928232 -23.24959459 449.11167354 -27.62280273 444.94946289 C-32.9401742 439.96217755 -38.77809248 435.56869303 -46 434 C-46.99 433.67 -47.98 433.34 -49 433 C-56.5369451 432.47109157 -63.64009257 433.76006172 -70 438 C-70.66 438.99 -71.32 439.98 -72 441 C-73.33163267 441.6700572 -74.66522159 442.33623135 -76 443 C-77.55336346 444.35953914 -79.07123941 445.76011548 -80.5625 447.1875 C-94.18636363 459.63102889 -107.09791009 463.51790977 -125 465 C-125 464.34 -125 463.68 -125 463 C-126.134375 462.9175 -127.26875 462.835 -128.4375 462.75 C-139.94748485 461.25045972 -149.13188356 453.83894904 -156.390625 445.1484375 C-159.27213792 441.30175763 -161.61585607 437.16640839 -164 433 C-170.94968161 420.47908582 -170.94968161 420.47908582 -182.375 412.5625 C-191.89921792 411.08460412 -198.81736942 414.16020475 -207 419 C-208.35439294 419.99272264 -209.6903219 421.01149013 -211 422.0625 C-219.90579701 429.05465467 -230.43866213 431.72618491 -241.625 430.77734375 C-252.55011914 429.01908239 -261.16054066 423.64759227 -268 415 C-278.07536296 399.07300702 -279.08656842 381.31288809 -275.11791992 363.3269043 C-272.73760088 353.35302535 -269.77601658 343.51902577 -266.92529297 333.67163086 C-252.94256311 285.34350433 -243.82463873 236.61256962 -240.75390625 186.37109375 C-240.70436861 185.56299004 -240.65483097 184.75488632 -240.60379219 183.92229462 C-240.1459888 176.41460486 -239.70361685 168.90603566 -239.27319336 161.39672852 C-236.98960405 121.75808921 -232.55217228 85.23124122 -213 50 C-212.67 49.34 -212.34 48.68 -212 48 C-200.479476 32.33113917 -188.28351681 18.11525493 -173 6 C-172.35417969 5.47535156 -171.70835937 4.95070312 -171.04296875 4.41015625 C-155.0759915 -8.1477496 -136.25672299 -16.04141241 -117 -22 C-116.01 -22.33 -115.02 -22.66 -114 -23 C-75.77942573 -29.23359366 -31.74560374 -23.96209319 0 0 Z M27 280 C30.40759626 281.02886361 33.5742238 281.16568934 37.125 281.1875 C38.70667969 281.20876953 38.70667969 281.20876953 40.3203125 281.23046875 C43.15270059 281.27657564 43.15270059 281.27657564 45 279 C37.65832246 276.26821301 33.90930192 276.7485638 27 280 Z M79 280 C78.67 280.66 78.34 281.32 78 282 C80.27113803 281.85899143 82.54190725 281.71203245 84.8125 281.5625 C86.07707031 281.48128906 87.34164063 281.40007812 88.64453125 281.31640625 C91.99181893 281.12815453 91.99181893 281.12815453 95 280 C94.67 279.34 94.34 278.68 94 278 C88.35293462 276.41882169 83.94939359 276.65915933 79 280 Z M95 279 C95.99 280.485 95.99 280.485 97 282 C97.66 282 98.32 282 99 282 C99 281.34 99 280.68 99 280 C97.68 279.67 96.36 279.34 95 279 Z M45 280 C44.67 280.66 44.34 281.32 44 282 C44.99 281.67 45.98 281.34 47 281 C46.34 280.67 45.68 280.34 45 280 Z M21 291 C15.6250611 294.95111403 13.0148442 301.51565537 10.03710938 307.30664062 C7.57978779 312.05683589 4.75958325 316.32896941 1.60546875 320.65234375 C-4.38323806 329.40955249 -6.98381706 337.41693929 -6 348 C-3.87502355 356.71752387 1.06262415 362.94652485 8.0625 368.375 C15.67216285 372.58460073 24.10583846 373.50049539 32.5625 371.34765625 C40.98702716 367.93981801 46.86064988 362.15322023 51.08984375 354.2109375 C53.59147418 348.1340155 53.00136886 342.0547544 52.83984375 335.59375 C53 332 53 332 53.99609375 329.51953125 C55.36475499 326.08456431 55.21540234 322.82097881 55.125 319.1875 C55.11597656 318.49462891 55.10695313 317.80175781 55.09765625 317.08789062 C55.07426157 315.39177605 55.03839641 313.69584129 55 312 C59.66666667 312 64.33333333 312 69 312 C69.04898438 313.18078125 69.09796875 314.3615625 69.1484375 315.578125 C69.22348879 317.13543937 69.29903561 318.69272991 69.375 320.25 C69.4059375 321.02730469 69.436875 321.80460937 69.46875 322.60546875 C69.67808635 326.68752756 70.13187158 329.34761831 72 333 C72.06382572 335.22835014 72.03305708 337.46028495 71.9375 339.6875 C71.86165425 345.78676271 72.37040967 350.4959587 75 356 C75.32871094 356.69738281 75.65742187 357.39476562 75.99609375 358.11328125 C79.85272342 365.19933784 86.42024294 369.49969381 94 372 C103.94307121 373.29098553 111.734019 371.7080631 120 366 C127.1128602 359.84794954 130.50731728 351.61658306 131.3125 342.4375 C131.01764205 331.10653018 124.92628601 322.32537487 118.81640625 313.2734375 C115.50880527 308.34826691 112.71411633 303.19711052 109.94921875 297.953125 C105.92739991 291.85994857 100.8494108 288.90574372 93.8125 287.25 C87.57172233 286.84076868 82.02301736 287.24671829 77.1875 291.4375 C76.465625 292.283125 75.74375 293.12875 75 294 C70.43825164 297.65980572 66.25803457 297.3589687 60.6875 297.1875 C59.43356445 297.16719727 59.43356445 297.16719727 58.15429688 297.14648438 C56.10258502 297.11131217 54.05120725 297.05751048 52 297 C52 296.34 52 295.68 52 295 C46.93652766 290.28979317 43.07713275 287.81853506 36 288 C35.40058594 287.80535156 34.80117188 287.61070312 34.18359375 287.41015625 C29.55090543 286.53997329 25.08252234 288.96767866 21 291 Z " fill="#FCFDFE" transform="translate(589,231)"/>
<path d="M0 0 C1.04542969 0.29519531 2.09085938 0.59039062 3.16796875 0.89453125 C8.33769529 2.40889559 12.68619838 3.70968383 17 7 C18.58700849 8.0067901 20.1746593 9.01265272 21.77050781 10.00537109 C46.30904209 25.33694033 64.02505655 47.28389889 70.84912109 75.65893555 C76.48284666 102.34686355 71.80917886 130.16660079 57 153 C54.49715594 156.49566965 51.82714408 159.76397145 49 163 C48.43796875 163.69351563 47.8759375 164.38703125 47.296875 165.1015625 C31.39232125 184.35053175 7.23923104 194.72265125 -17.0625 197.75 C-18.70661589 197.86222634 -20.35308981 197.94170229 -22 198 C-23.22460938 198.0515625 -24.44921875 198.103125 -25.7109375 198.15625 C-57.26857024 199.05789665 -84.40604973 188.3329938 -107.328125 166.6953125 C-110.19026743 163.80806356 -112.59190835 160.85658851 -114.81640625 157.4609375 C-116.03448495 155.68957988 -116.03448495 155.68957988 -119 155 C-119.08765625 154.31550781 -119.1753125 153.63101563 -119.265625 152.92578125 C-120.17388625 149.30722978 -121.90131805 146.38623401 -123.75 143.1875 C-135.82955393 121.38425678 -138.56614422 94.99675198 -132 71 C-131.82839355 70.36868164 -131.65678711 69.73736328 -131.47998047 69.08691406 C-128.97320441 60.12166134 -125.43526688 52.56852403 -120 45 C-119.39285156 44.10925781 -118.78570313 43.21851563 -118.16015625 42.30078125 C-101.67632926 18.67059163 -79.12255724 3.41288439 -51 -3 C-49.97390625 -3.23976563 -48.9478125 -3.47953125 -47.890625 -3.7265625 C-31.87881148 -6.83766616 -15.50507758 -4.40429342 0 0 Z M-66 50 C-62.59240374 51.02886361 -59.4257762 51.16568934 -55.875 51.1875 C-54.29332031 51.20876953 -54.29332031 51.20876953 -52.6796875 51.23046875 C-49.84729941 51.27657564 -49.84729941 51.27657564 -48 49 C-55.34167754 46.26821301 -59.09069808 46.7485638 -66 50 Z M-14 50 C-14.33 50.66 -14.66 51.32 -15 52 C-12.72886197 51.85899143 -10.45809275 51.71203245 -8.1875 51.5625 C-6.92292969 51.48128906 -5.65835938 51.40007813 -4.35546875 51.31640625 C-1.00818107 51.12815453 -1.00818107 51.12815453 2 50 C1.67 49.34 1.34 48.68 1 48 C-4.64706538 46.41882169 -9.05060641 46.65915933 -14 50 Z M2 49 C2.99 50.485 2.99 50.485 4 52 C4.66 52 5.32 52 6 52 C6 51.34 6 50.68 6 50 C4.68 49.67 3.36 49.34 2 49 Z M-48 50 C-48.33 50.66 -48.66 51.32 -49 52 C-48.01 51.67 -47.02 51.34 -46 51 C-46.66 50.67 -47.32 50.34 -48 50 Z M-72 61 C-77.3749389 64.95111403 -79.9851558 71.51565537 -82.96289062 77.30664062 C-85.42021221 82.05683589 -88.24041675 86.32896941 -91.39453125 90.65234375 C-97.38323806 99.40955249 -99.98381706 107.41693929 -99 118 C-96.87502355 126.71752387 -91.93737585 132.94652485 -84.9375 138.375 C-77.32783715 142.58460073 -68.89416154 143.50049539 -60.4375 141.34765625 C-52.01297284 137.93981801 -46.13935012 132.15322023 -41.91015625 124.2109375 C-39.40852582 118.1340155 -39.99863114 112.0547544 -40.16015625 105.59375 C-40 102 -40 102 -39.00390625 99.51953125 C-37.63524501 96.08456431 -37.78459766 92.82097881 -37.875 89.1875 C-37.88402344 88.49462891 -37.89304687 87.80175781 -37.90234375 87.08789062 C-37.92573843 85.39177605 -37.96160359 83.69584129 -38 82 C-33.33333333 82 -28.66666667 82 -24 82 C-23.95101562 83.18078125 -23.90203125 84.3615625 -23.8515625 85.578125 C-23.77651121 87.13543937 -23.70096439 88.69272991 -23.625 90.25 C-23.5940625 91.02730469 -23.563125 91.80460938 -23.53125 92.60546875 C-23.32191365 96.68752756 -22.86812842 99.34761831 -21 103 C-20.93617428 105.22835014 -20.96694292 107.46028495 -21.0625 109.6875 C-21.13834575 115.78676271 -20.62959033 120.4959587 -18 126 C-17.67128906 126.69738281 -17.34257813 127.39476562 -17.00390625 128.11328125 C-13.14727658 135.19933784 -6.57975706 139.49969381 1 142 C10.94307121 143.29098553 18.734019 141.7080631 27 136 C34.1128602 129.84794954 37.50731728 121.61658306 38.3125 112.4375 C38.01764205 101.10653018 31.92628601 92.32537487 25.81640625 83.2734375 C22.50880527 78.34826691 19.71411633 73.19711052 16.94921875 67.953125 C12.92739991 61.85994857 7.8494108 58.90574372 0.8125 57.25 C-5.42827767 56.84076868 -10.97698264 57.24671829 -15.8125 61.4375 C-16.534375 62.283125 -17.25625 63.12875 -18 64 C-22.56174836 67.65980572 -26.74196543 67.3589687 -32.3125 67.1875 C-33.56643555 67.16719727 -33.56643555 67.16719727 -34.84570312 67.14648438 C-36.89741498 67.11131217 -38.94879275 67.05751048 -41 67 C-41 66.34 -41 65.68 -41 65 C-46.06347234 60.28979317 -49.92286725 57.81853506 -57 58 C-57.59941406 57.80535156 -58.19882812 57.61070312 -58.81640625 57.41015625 C-63.44909457 56.53997329 -67.91747766 58.96767866 -72 61 Z " fill="#35DDBB" transform="translate(682,461)"/>
<path d="M0 0 C1.01449219 0.75152344 2.02898437 1.50304687 3.07421875 2.27734375 C10.04705217 7.50134061 16.66626792 13.00863182 23 19 C23.88300781 19.81855469 24.76601563 20.63710937 25.67578125 21.48046875 C36.37107341 31.72192956 44.45818197 43.46869841 51.65258789 56.36572266 C53.33549601 59.35337327 54.68243906 61.70699562 57.22265625 64.05078125 C59.7496631 66.822158 59.58004443 69.32150028 60 73 C60.85864174 75.39658865 61.78045036 77.7710934 62.75 80.125 C71.93846831 103.59738521 74.64428964 129.41125129 75.53515625 154.4296875 C75.57813339 155.58187775 75.62111053 156.73406799 75.66539001 157.9211731 C75.75500665 160.34306659 75.84316629 162.7650144 75.92993164 165.18701172 C76.06188561 168.85790797 76.19954668 172.52855837 76.33789062 176.19921875 C76.42482072 178.56769582 76.5114201 180.93618506 76.59765625 183.3046875 C76.65857201 184.92405716 76.65857201 184.92405716 76.72071838 186.57614136 C76.98422372 194.05340719 77.04414163 201.51839771 77 209 C73.7 209 70.4 209 67 209 C67 208.34 67 207.68 67 207 C64.36 207.33 61.72 207.66 59 208 C59 207.34 59 206.68 59 206 C59.99 206 60.98 206 62 206 C61.84402344 204.85660156 61.68804688 203.71320313 61.52734375 202.53515625 C60.79915019 195.96349735 60.74783932 189.36895262 60.61239624 182.76501465 C59.34379576 123.58848778 53.03096029 70.15344077 9.3828125 26.375 C-13.23670351 4.89652782 -45.75080092 -9.03228287 -77 -10 C-78.19496094 -10.0515625 -79.38992188 -10.103125 -80.62109375 -10.15625 C-118.01259925 -11.04564161 -150.10209277 4.99124345 -177 30 C-177.60585938 30.55171875 -178.21171875 31.1034375 -178.8359375 31.671875 C-196.58006559 48.49963967 -208.16701182 71.80449223 -215 95 C-215.42732422 96.43472656 -215.42732422 96.43472656 -215.86328125 97.8984375 C-221.5291779 118.64433602 -222.06690057 140.39390756 -223.34893799 161.73876953 C-227.34072016 228.09751116 -227.34072016 228.09751116 -232.0625 255.375 C-232.20861725 256.23510681 -232.3547345 257.09521362 -232.50527954 257.98138428 C-237.74828178 288.63379698 -245.50193933 318.56019563 -254.71688843 348.24214172 C-258.27192397 359.71294036 -261.56575318 370.43180092 -261.4375 382.5625 C-261.43065186 383.56466553 -261.42380371 384.56683105 -261.41674805 385.59936523 C-261.2286288 394.24087279 -259.86822502 401.32403471 -254.75 408.4375 C-249.41763374 413.40629583 -245.036118 415.23848335 -237.6875 415.5 C-227.27665473 415.10465145 -220.00758237 411.3064029 -211.71508789 405.29711914 C-202.69273532 398.79023695 -194.11423259 395.97518115 -183 397 C-171.61429534 399.69986222 -162.81565829 406.30131141 -156.63305664 416.18530273 C-155.29082227 418.54704435 -153.9857753 420.92633902 -152.6875 423.3125 C-146.67196082 433.96427119 -140.40539371 444.28011207 -128 448 C-118.28527322 449.77749316 -109.85155777 449.57595197 -101.328125 444.3671875 C-96.40827649 440.93441184 -92.02880264 437.13123961 -87.6875 433 C-80.3530496 426.19094003 -70.28455081 418.84505924 -60 418 C-58.89140625 417.90847656 -57.7828125 417.81695313 -56.640625 417.72265625 C-40.29715937 417.03889901 -29.22858988 423.6516333 -17.37890625 434.37109375 C-16.13947266 435.51771484 -16.13947266 435.51771484 -14.875 436.6875 C-2.79823198 447.72581982 10.33898663 452.05320536 26.5390625 451.4609375 C33.84740307 450.91855751 38.88800669 448.11199331 44 443 C40.7 442.34 37.4 441.68 34 441 C34 440.67 34 440.34 34 440 C50.335 440.495 50.335 440.495 67 441 C48.48821082 462.59708738 48.48821082 462.59708738 37 465 C36.09701172 465.25523437 36.09701172 465.25523437 35.17578125 465.515625 C18.430873 469.24339632 0.45182399 465.57062015 -13.9375 456.4375 C-18.91969115 452.98928232 -23.24959459 449.11167354 -27.62280273 444.94946289 C-32.9401742 439.96217755 -38.77809248 435.56869303 -46 434 C-46.99 433.67 -47.98 433.34 -49 433 C-56.5369451 432.47109157 -63.64009257 433.76006172 -70 438 C-70.66 438.99 -71.32 439.98 -72 441 C-73.33163267 441.6700572 -74.66522159 442.33623135 -76 443 C-77.55336346 444.35953914 -79.07123941 445.76011548 -80.5625 447.1875 C-94.18636363 459.63102889 -107.09791009 463.51790977 -125 465 C-125 464.34 -125 463.68 -125 463 C-126.134375 462.9175 -127.26875 462.835 -128.4375 462.75 C-139.94748485 461.25045972 -149.13188356 453.83894904 -156.390625 445.1484375 C-159.27213792 441.30175763 -161.61585607 437.16640839 -164 433 C-170.94968161 420.47908582 -170.94968161 420.47908582 -182.375 412.5625 C-191.89921792 411.08460412 -198.81736942 414.16020475 -207 419 C-208.35439294 419.99272264 -209.6903219 421.01149013 -211 422.0625 C-219.90579701 429.05465467 -230.43866213 431.72618491 -241.625 430.77734375 C-252.55011914 429.01908239 -261.16054066 423.64759227 -268 415 C-278.07536296 399.07300702 -279.08656842 381.31288809 -275.11791992 363.3269043 C-272.73760088 353.35302535 -269.77601658 343.51902577 -266.92529297 333.67163086 C-252.94256311 285.34350433 -243.82463873 236.61256962 -240.75390625 186.37109375 C-240.70436861 185.56299004 -240.65483097 184.75488632 -240.60379219 183.92229462 C-240.1459888 176.41460486 -239.70361685 168.90603566 -239.27319336 161.39672852 C-236.98960405 121.75808921 -232.55217228 85.23124122 -213 50 C-212.67 49.34 -212.34 48.68 -212 48 C-200.479476 32.33113917 -188.28351681 18.11525493 -173 6 C-172.35417969 5.47535156 -171.70835937 4.95070312 -171.04296875 4.41015625 C-155.0759915 -8.1477496 -136.25672299 -16.04141241 -117 -22 C-116.01 -22.33 -115.02 -22.66 -114 -23 C-75.77942573 -29.23359366 -31.74560374 -23.96209319 0 0 Z " fill="#DAE0E9" transform="translate(589,231)"/>
<path d="M0 0 C5.19448107 3.37361996 8.95829548 8.3094808 10.81640625 14.1796875 C11.12698192 17.23791048 11.14426059 20.28322685 11.15234375 23.35546875 C11.15900055 24.23945847 11.16565735 25.12344818 11.17251587 26.03422546 C11.18261934 27.90096972 11.1873336 29.76774992 11.18701172 31.63452148 C11.19137591 34.4724569 11.2276943 37.30882472 11.265625 40.14648438 C11.27149567 41.96614056 11.27546339 43.78580407 11.27734375 45.60546875 C11.29171478 46.44531815 11.30608582 47.28516754 11.32089233 48.15046692 C11.26950368 54.86593793 9.46854998 60.04313395 5.10546875 65.203125 C-2.1496566 71.0957855 -8.92240436 72.13143028 -18.18359375 71.1796875 C-24.70628999 69.43588715 -29.62872891 64.81943253 -33.18359375 59.1796875 C-34.90385443 54.12534168 -35.50270273 49.45829902 -35.51953125 44.15625 C-35.52951645 43.03783218 -35.52951645 43.03783218 -35.53970337 41.89682007 C-35.54976922 40.32869918 -35.55452228 38.76053598 -35.55419922 37.19238281 C-35.55856993 34.81762812 -35.59494364 32.44473909 -35.6328125 30.0703125 C-35.69161358 22.13680559 -35.63368234 15.06175453 -31.18359375 8.1796875 C-30.82539551 7.61419189 -30.46719727 7.04869629 -30.09814453 6.46606445 C-23.20647095 -2.99589996 -10.36852769 -4.54570108 0 0 Z " fill="#202E3C" transform="translate(575.18359375,325.8203125)"/>
<path d="M0 0 C4.60214839 3.49988558 7.42455475 8.269758 9.234375 13.69921875 C9.36762333 16.54319755 9.44668804 19.36178663 9.47265625 22.20703125 C9.480728 23.0470871 9.48879974 23.88714294 9.49711609 24.75265503 C9.51094623 26.53299911 9.52167317 28.31336959 9.52954102 30.09375 C9.54102932 31.90340005 9.56143096 33.71301706 9.59106445 35.52246094 C9.63403389 38.146717 9.64995299 40.76996568 9.66015625 43.39453125 C9.67766434 44.19174591 9.69517242 44.98896057 9.71321106 45.81033325 C9.68799957 52.4497646 8.0661538 58.56753788 3.52632141 63.58816528 C-2.57022168 69.25170844 -8.64988893 70.17922186 -16.796875 70.0078125 C-23.8397115 69.27572818 -28.1146956 65.90466727 -32.5390625 60.578125 C-35.95634258 55.3433743 -36.08559823 50.59112483 -36.1015625 44.5234375 C-36.1115477 43.19745293 -36.1115477 43.19745293 -36.12173462 41.84468079 C-36.13183809 39.97793653 -36.13655235 38.11115633 -36.13623047 36.24438477 C-36.14059466 33.40644935 -36.17691305 30.57008153 -36.21484375 27.73242188 C-36.22071442 25.91276569 -36.22468214 24.09310218 -36.2265625 22.2734375 C-36.24093353 21.4335881 -36.25530457 20.59373871 -36.27011108 19.72843933 C-36.21872243 13.01296832 -34.41776873 7.8357723 -30.0546875 2.67578125 C-20.99286156 -4.68429334 -10.3368796 -5.74453978 0 0 Z " fill="#1F2D3B" transform="translate(469.765625,327.30078125)"/>
<path d="M0 0 C4.35160346 3.17498965 7.11897025 6.71198852 9.2578125 11.640625 C10.31002108 18.5384368 9.91969281 24.13657669 6.2578125 30.203125 C3.06096509 34.46307497 0.04058241 37.04848091 -5.1796875 38.328125 C-10.86673421 38.99677529 -16.85727327 39.44639342 -22.1171875 36.828125 C-26.53886106 33.21859557 -30.18663774 29.23634215 -32.0546875 23.765625 C-32.0959375 22.96125 -32.1371875 22.156875 -32.1796875 21.328125 C-32.2621875 20.235 -32.3446875 19.141875 -32.4296875 18.015625 C-31.97511448 11.31067296 -30.33671546 7.02942213 -25.3046875 2.453125 C-17.66880001 -3.61961886 -8.74015486 -5.02470442 0 0 Z " fill="#35DEBB" transform="translate(701.1796875,554.671875)"/>
<path d="M0 0 C5.17793268 2.96630556 8.65315452 7.04438258 11.125 12.4375 C12.78354441 20.39851316 11.22717753 26.4006181 7.0625 33.1875 C2.09490967 38.02083113 -2.43439079 39.68111058 -9.375 39.75 C-13.40140352 39.61238874 -17.3066872 39.31379173 -21.25 38.4375 C-21.25 37.7775 -21.25 37.1175 -21.25 36.4375 C-22.013125 35.674375 -22.77625 34.91125 -23.5625 34.125 C-28.39387791 29.29362209 -30.0069323 25.35431237 -30.5625 18.6875 C-30.47191803 12.60718504 -27.7148499 8.21907421 -23.9375 3.625 C-16.92929718 -2.07935113 -8.3667075 -3.71142665 0 0 Z " fill="#35DEBB" transform="translate(621.25,553.5625)"/>
<path d="M0 0 C3.00401755 3.79454849 5.48758689 7.87294273 8 12 C8.89525391 13.43859375 8.89525391 13.43859375 9.80859375 14.90625 C15.58203238 24.41261881 17.68514014 30.88718396 16 42 C15.67 42 15.34 42 15 42 C14.90203125 41.09378906 14.8040625 40.18757812 14.703125 39.25390625 C13.24816611 27.40100841 9.74397298 19.60802023 2.99780273 9.95898438 C0.65608727 6.50628598 -0.5371355 4.20229538 0 0 Z " fill="#2AD8B1" transform="translate(705,537)"/>
<path d="M0 0 C0.33 0 0.66 0 1 0 C1.07476563 0.85722656 1.14953125 1.71445312 1.2265625 2.59765625 C1.9820982 9.16785391 2.69132109 13.89547599 7.3671875 18.73046875 C10.59626228 21.24111302 13.77340257 22.30628876 17.75 23.125 C18.54921875 23.29257812 19.3484375 23.46015625 20.171875 23.6328125 C20.77515625 23.75398437 21.3784375 23.87515625 22 24 C22 24.33 22 24.66 22 25 C16.65165933 25.43659924 12.30916068 25.46284767 7.63671875 22.40234375 C3.81994605 19.13212561 0.75407993 15.20837693 -0.875 10.4375 C-1.03715827 7.27541382 -1.12173908 4.16521619 -1 1 C-0.67 0.67 -0.34 0.34 0 0 Z " fill="#2ED9B2" transform="translate(670,568)"/>
<path d="M0 0 C4.3389155 6.50837326 1.63521245 15.71430051 0.5 23.0625 C0.35691406 24.02349609 0.21382812 24.98449219 0.06640625 25.97460938 C-0.28325586 28.3173455 -0.6388144 30.65901777 -1 33 C-1.66 33 -2.32 33 -3 33 C-2.69052199 28.99976025 -2.37687011 24.99985802 -2.0625 21 C-1.97548828 19.87464844 -1.88847656 18.74929688 -1.79882812 17.58984375 C-1.33401941 11.70226664 -0.7960839 5.85229246 0 0 Z " fill="#2CD7AF" transform="translate(753,552)"/>
<path d="M0 0 C3.2719327 0 5.36872886 0.46413837 7.88671875 2.6015625 C12.38734721 7.48903743 15.01971397 11.70235547 14.98828125 18.5546875 C14.54381146 25.36989101 14.54381146 25.36989101 12.44921875 27.796875 C11.97097656 28.19390625 11.49273438 28.5909375 11 29 C11.165 28.175 11.33 27.35 11.5 26.5 C12.54530783 19.18284522 12.33284378 14.66568756 9 8 C8.566875 6.8553125 8.566875 6.8553125 8.125 5.6875 C6.5351801 3.30277016 4.65221799 2.9282763 2 2 C1.34 1.34 0.68 0.68 0 0 Z " fill="#2BD9B2" transform="translate(696,554)"/>
<path d="M0 0 C0.66 0 1.32 0 2 0 C2.78223948 3.71563751 3.02400092 7.16029297 2.9375 10.9375 C2.88904838 14.15953256 3.07278793 16.80689258 4.0625 19.875 C4.97083896 22.90279653 5.14924814 24.12687965 4 27 C-0.13142674 17.47975578 -0.13142674 17.47975578 -0.09765625 12.98828125 C-0.09443359 12.23095703 -0.09121094 11.47363281 -0.08789062 10.69335938 C-0.07951172 9.90767578 -0.07113281 9.12199219 -0.0625 8.3125 C-0.05798828 7.51521484 -0.05347656 6.71792969 -0.04882812 5.89648438 C-0.0370585 3.93095743 -0.01912348 1.96546915 0 0 Z " fill="#32DCB6" transform="translate(659,562)"/>
<path d="M0 0 C0.33 0 0.66 0 1 0 C1.7937345 7.04071895 0.94200684 11.44383598 -3.3515625 17.1484375 C-6.25103272 20.40518841 -8.44480107 21.89632007 -12.8125 22.1875 C-13.534375 22.125625 -14.25625 22.06375 -15 22 C-13.05229116 20.70152744 -11.07353188 19.44806155 -9.0625 18.25 C-3.04719055 13.83058898 -1.50856764 9.05869706 -0.296875 1.9765625 C-0.19890625 1.32429687 -0.1009375 0.67203125 0 0 Z " fill="#26D8B0" transform="translate(631,570)"/>
<path d="M0 0 C0.66 0 1.32 0 2 0 C0.84713212 6.58781644 -3.84094624 10.20771048 -9 14 C-9.66 14 -10.32 14 -11 14 C-9.649239 9.94771699 -7.16180298 8.45431203 -3.91015625 5.81640625 C-1.97558446 3.97678277 -1.02528508 2.44243304 0 0 Z " fill="#2CD8B1" transform="translate(638,587)"/>
<path d="M0 0 C0.66 0 1.32 0 2 0 C2.02714735 2.22909871 2.04646254 4.45829367 2.0625 6.6875 C2.07410156 7.92886719 2.08570313 9.17023437 2.09765625 10.44921875 C2.01478673 13.46235454 1.70839449 16.08275339 1 19 C0.67 19 0.34 19 0 19 C-0.1938211 16.02111874 -0.38035102 13.04209754 -0.5625 10.0625 C-0.61857422 9.21236328 -0.67464844 8.36222656 -0.73242188 7.48632812 C-0.80493164 6.27299805 -0.80493164 6.27299805 -0.87890625 5.03515625 C-0.9260376 4.2862915 -0.97316895 3.53742676 -1.02172852 2.76586914 C-1 1 -1 1 0 0 Z " fill="#2BDBB4" transform="translate(642,562)"/>
<path d="M0 0 C1.30324219 0.14695312 1.30324219 0.14695312 2.6328125 0.296875 C3.49648438 0.38453125 4.36015625 0.4721875 5.25 0.5625 C7.73971352 1.04337925 9.5630985 1.8015024 11.7578125 3.046875 C11.7578125 3.706875 11.7578125 4.366875 11.7578125 5.046875 C10.1078125 5.046875 8.4578125 5.046875 6.7578125 5.046875 C6.7578125 4.386875 6.7578125 3.726875 6.7578125 3.046875 C3.1278125 2.716875 -0.5021875 2.386875 -4.2421875 2.046875 C-2.2421875 0.046875 -2.2421875 0.046875 0 0 Z " fill="#2AD9B1" transform="translate(676.2421875,505.953125)"/>
<path d="M0 0 C3.78239671 0.65690619 7.21841526 1.720131 10.8125 3.0625 C11.78832031 3.42472656 12.76414062 3.78695312 13.76953125 4.16015625 C14.50558594 4.43730469 15.24164062 4.71445312 16 5 C16 5.33 16 5.66 16 6 C10.13190493 5.47606294 5.45126259 4.23891142 0 2 C0 1.34 0 0.68 0 0 Z " fill="#2FD8B2" transform="translate(606,648)"/>
<path d="M0 0 C1.32 0.33 2.64 0.66 4 1 C4.12375 1.886875 4.2475 2.77375 4.375 3.6875 C4.94412736 6.70387502 5.76614436 9.20326054 7 12 C4 11 4 11 2.83203125 9.2578125 C2.49558594 8.55398438 2.15914062 7.85015625 1.8125 7.125 C1.46832031 6.42632813 1.12414062 5.72765625 0.76953125 5.0078125 C0 3 0 3 0 0 Z " fill="#2FD7B1" transform="translate(556,597)"/>
<path d="M0 0 C0.8971875 0.309375 0.8971875 0.309375 1.8125 0.625 C0.45125 1.3984375 0.45125 1.3984375 -0.9375 2.1875 C-4.70512616 4.66056267 -6.1959148 7.64182961 -8.1875 11.625 C-8.9375 10 -8.9375 10 -9.1875 7.625 C-4.48677007 -0.76916058 -4.48677007 -0.76916058 0 0 Z " fill="#28D8B0" transform="translate(602.1875,555.375)"/>
<path d="M0 0 C0.66 0.33 1.32 0.66 2 1 C0.56458334 2.29398147 -0.87341352 3.58510111 -2.3125 4.875 C-3.11300781 5.59429688 -3.91351562 6.31359375 -4.73828125 7.0546875 C-7 9 -7 9 -10 11 C-10.99 10.67 -11.98 10.34 -13 10 C-12.22914063 9.44570313 -11.45828125 8.89140625 -10.6640625 8.3203125 C-9.66117188 7.59585938 -8.65828125 6.87140625 -7.625 6.125 C-6.62726562 5.40570312 -5.62953125 4.68640625 -4.6015625 3.9453125 C-2.00530106 2.1005342 -2.00530106 2.1005342 0 0 Z " fill="#24D4AB" transform="translate(721,631)"/>
<path d="M0 0 C0.33 0.66 0.66 1.32 1 2 C-4.82322176 7.97646444 -4.82322176 7.97646444 -9.125 8.0625 C-10.548125 8.0315625 -10.548125 8.0315625 -12 8 C-9.82712213 6.55141475 -7.71328862 5.25831941 -5.4375 4 C-2.06123441 2.23162582 -2.06123441 2.23162582 0 0 Z " fill="#29D8B0" transform="translate(705,584)"/>
<path d="M0 0 C3.96996957 1.32332319 5.76036395 4.0089399 8.14453125 7.24609375 C9 9 9 9 8 12 C7.03760548 10.75312408 6.08025991 9.50235031 5.125 8.25 C4.59132813 7.55390625 4.05765625 6.8578125 3.5078125 6.140625 C2.10761086 4.15277397 1.02144735 2.20156614 0 0 Z " fill="#2AD7B0" transform="translate(729,494)"/>
<path d="M0 0 C3 3 6 6 9 9 C5.45529741 8.70460812 4.21784705 8.22373481 1.6875 5.625 C0 3 0 3 0 0 Z " fill="#2DD9B3" transform="translate(594,581)"/>
<path d="M0 0 C2.73704754 2.73704754 3.16182449 5.26044774 4 9 C3.625 11.4375 3.625 11.4375 3 13 C0.78145293 8.37802694 -0.38281159 5.23175837 0 0 Z " fill="#27D7B0" transform="translate(660,576)"/>
<path d="M0 0 C0.33 0.66 0.66 1.32 1 2 C-3.29 1.67 -7.58 1.34 -12 1 C-12 0.67 -12 0.34 -12 0 C-3.05084746 -1.34237288 -3.05084746 -1.34237288 0 0 Z " fill="#28D8AF" transform="translate(633,507)"/>
<path d="M0 0 C4.37859255 0.50522222 6.81651224 3.17827222 10 6 C9.67 6.66 9.34 7.32 9 8 C7.49712782 6.85793642 5.99776716 5.71125043 4.5 4.5625 C3.6646875 3.92441406 2.829375 3.28632813 1.96875 2.62890625 C1.3190625 2.09136719 0.669375 1.55382812 0 1 C0 0.67 0 0.34 0 0 Z " fill="#22D4AC" transform="translate(710,477)"/>
<path d="M0 0 C3.25543229 0.34879632 4.01873107 1.02133261 6.25 3.5625 C6.8275 4.366875 7.405 5.17125 8 6 C5 6 5 6 3.61328125 4.6875 C2.40885417 3.125 1.20442708 1.5625 0 0 Z " fill="#47DCBB" transform="translate(573,625)"/>
<path d="M0 0 C0.33 0 0.66 0 1 0 C1 2.31 1 4.62 1 7 C0.01 7.33 -0.98 7.66 -2 8 C-1.125 2.25 -1.125 2.25 0 0 Z " fill="#28D7AD" transform="translate(719,580)"/>
<path d="M0 0 C0.33 0 0.66 0 1 0 C1 2.31 1 4.62 1 7 C0.67 7 0.34 7 0 7 C0 4.69 0 2.38 0 0 Z " fill="#A2E9DC" transform="translate(545,554)"/>
<path d="M0 0 C1.98 0 3.96 0 6 0 C6 0.33 6 0.66 6 1 C4.02 1 2.04 1 0 1 C0 0.67 0 0.34 0 0 Z " fill="#4BE2C0" transform="translate(690,601)"/>
<path d="M0 0 C0.33 0 0.66 0 1 0 C1 1.98 1 3.96 1 6 C0.67 6 0.34 6 0 6 C0 4.02 0 2.04 0 0 Z " fill="#48E0BE" transform="translate(660,546)"/>
<path d="M0 0 C2.475 0.495 2.475 0.495 5 1 C4.01 1.495 4.01 1.495 3 2 C2.01 1.34 1.02 0.68 0 0 Z " fill="#DADFE7" transform="translate(539,208)"/>
<path d="M0 0 C0.33 1.32 0.66 2.64 1 4 C0.34 3.34 -0.32 2.68 -1 2 C-0.67 1.34 -0.34 0.68 0 0 Z " fill="#9CE9DB" transform="translate(548,580)"/>
<path d="M0 0 C0.33 0 0.66 0 1 0 C1 1.65 1 3.3 1 5 C0.67 5 0.34 5 0 5 C0 3.35 0 1.7 0 0 Z " fill="#9DE6DA" transform="translate(545,562)"/>
<path d="M0 0 C0.33 0 0.66 0 1 0 C1 1.65 1 3.3 1 5 C0.67 5 0.34 5 0 5 C0 3.35 0 1.7 0 0 Z " fill="#46E4BF" transform="translate(642,552)"/>
<path d="M0 0 C1.65 0 3.3 0 5 0 C5 0.33 5 0.66 5 1 C3.35 1 1.7 1 0 1 C0 0.67 0 0.34 0 0 Z " fill="#55E1C6" transform="translate(623,509)"/>
<path d="M0 0 C0.66 0.33 1.32 0.66 2 1 C1.01 1 0.02 1 -1 1 C-0.67 0.67 -0.34 0.34 0 0 Z " fill="#DAE0E8" transform="translate(356,662)"/>
<path d="M0 0 C1.485 0.99 1.485 0.99 3 2 C2.01 2 1.02 2 0 2 C0 1.34 0 0.68 0 0 Z " fill="#DFE7EE" transform="translate(410,646)"/>
<path d="M0 0 C0.99 0.33 1.98 0.66 3 1 C2.01 1 1.02 1 0 1 C0 0.67 0 0.34 0 0 Z " fill="#96E7D9" transform="translate(593,644)"/>
<path d="M0 0 C4 1 4 1 4 1 Z " fill="#49E1C0" transform="translate(684,601)"/>
<path d="M0 0 C4 1 4 1 4 1 Z " fill="#4AE4C0" transform="translate(608,601)"/>
<path d="M0 0 C4 1 4 1 4 1 Z " fill="#DBE0E7" transform="translate(466,209)"/>
<path d="M0 0 C3 1 3 1 3 1 Z " fill="#DCE2EA" transform="translate(477,695)"/>
<path d="M0 0 C0.66 0 1.32 0 2 0 C1.67 0.66 1.34 1.32 1 2 C0.67 1.34 0.34 0.68 0 0 Z " fill="#DBE1E9" transform="translate(347,662)"/>
<path d="M0 0 C0.99 0.495 0.99 0.495 2 1 C1.01 1.495 1.01 1.495 0 2 C0 1.34 0 0.68 0 0 Z " fill="#D9E1E8" transform="translate(344,662)"/>
<path d="M0 0 C3 1 3 1 3 1 Z " fill="#4BDFC1" transform="translate(697,600)"/>
<path d="M0 0 C3 1 3 1 3 1 Z " fill="#4CE3C3" transform="translate(617,600)"/>
<path d="" fill="#99E9D9" transform="translate(0,0)"/>
<path d="" fill="#AAEFE0" transform="translate(0,0)"/>
<path d="" fill="#DFE4EE" transform="translate(0,0)"/>
<path d="M0 0 C3 1 3 1 3 1 Z " fill="#7DE3CC" transform="translate(668,456)"/>
<path d="M0 0 C3 1 3 1 3 1 Z " fill="#E2F3F3" transform="translate(644,439)"/>
<path d="" fill="#DFE3ED" transform="translate(0,0)"/>
<path d="M0 0 C2 1 2 1 2 1 Z " fill="#CEDDE4" transform="translate(633,693)"/>
<path d="" fill="#DDE3ED" transform="translate(0,0)"/>
<path d="M0 0 C2 1 2 1 2 1 Z " fill="#DCE8EE" transform="translate(551,671)"/>
<path d="M0 0 C2 1 2 1 2 1 Z " fill="#D8E0E8" transform="translate(352,663)"/>
<path d="M0 0 C2 1 2 1 2 1 Z " fill="#D8DFE8" transform="translate(359,662)"/>
<path d="" fill="#99E5D8" transform="translate(0,0)"/>
<path d="M0 0 C2 1 2 1 2 1 Z " fill="#E2E7F0" transform="translate(408,645)"/>
<path d="M0 0 C2 1 2 1 2 1 Z " fill="#47E3C1" transform="translate(681,600)"/>
<path d="M0 0 C2 1 2 1 2 1 Z " fill="#4CDFC2" transform="translate(603,600)"/>
<path d="" fill="#DCE0EA" transform="translate(0,0)"/>
<path d="M0 0 C2 1 2 1 2 1 Z " fill="#45DCBF" transform="translate(702,590)"/>
<path d="" fill="#C0EFE8" transform="translate(0,0)"/>
<path d="" fill="#57DEC3" transform="translate(0,0)"/>
<path d="" fill="#BEEDE8" transform="translate(0,0)"/>
<path d="" fill="#BAEEE6" transform="translate(0,0)"/>
<path d="" fill="#98E7DA" transform="translate(0,0)"/>
<path d="" fill="#94E6DA" transform="translate(0,0)"/>
<path d="" fill="#4ADEC0" transform="translate(0,0)"/>
<path d="M0 0 C2 1 2 1 2 1 Z " fill="#49DFC0" transform="translate(620,552)"/>
<path d="M0 0 C2 1 2 1 2 1 Z " fill="#48DFC0" transform="translate(708,549)"/>
<path d="" fill="#C3F0EA" transform="translate(0,0)"/>
<path d="" fill="#48E4C1" transform="translate(0,0)"/>
<path d="" fill="#47E2C0" transform="translate(0,0)"/>
<path d="" fill="#4FD6BA" transform="translate(0,0)"/>
<path d="M0 0 C2 1 2 1 2 1 Z " fill="#55E1C5" transform="translate(675,509)"/>
<path d="" fill="#DEE4EB" transform="translate(0,0)"/>
<path d="" fill="#DFE4EB" transform="translate(0,0)"/>
<path d="M0 0 C2 1 2 1 2 1 Z " fill="#DAEFEC" transform="translate(652,439)"/>
<path d="" fill="#DDE1E9" transform="translate(0,0)"/>
<path d="" fill="#DCE2E8" transform="translate(0,0)"/>
<path d="M0 0 C2 1 2 1 2 1 Z " fill="#DBE2EA" transform="translate(368,291)"/>
<path d="M0 0 C2 1 2 1 2 1 Z " fill="#DEE1E9" transform="translate(432,224)"/>
<path d="M0 0 C2 1 2 1 2 1 Z " fill="#DCE1E8" transform="translate(448,216)"/>
<path d="" fill="#364641" transform="translate(0,0)"/>
<path d="" fill="#4E5150" transform="translate(0,0)"/>
<path d="" fill="#DCE2EB" transform="translate(0,0)"/>
<path d="" fill="#DAE3EC" transform="translate(0,0)"/>
<path d="" fill="#CEDFE4" transform="translate(0,0)"/>
<path d="" fill="#D7E4E9" transform="translate(0,0)"/>
<path d="" fill="#D6E1E8" transform="translate(0,0)"/>
<path d="" fill="#DBE4EC" transform="translate(0,0)"/>
<path d="" fill="#D9E2E9" transform="translate(0,0)"/>
<path d="" fill="#DAE2EB" transform="translate(0,0)"/>
<path d="" fill="#DDE4EE" transform="translate(0,0)"/>
<path d="" fill="#DCE7EC" transform="translate(0,0)"/>
<path d="" fill="#B8D9D8" transform="translate(0,0)"/>
<path d="" fill="#DDE6EE" transform="translate(0,0)"/>
<path d="" fill="#DEE6EE" transform="translate(0,0)"/>
<path d="" fill="#DDE4EC" transform="translate(0,0)"/>
<path d="" fill="#DFE9EE" transform="translate(0,0)"/>
<path d="" fill="#DFE8EF" transform="translate(0,0)"/>
<path d="" fill="#DDE5EF" transform="translate(0,0)"/>
<path d="" fill="#DEE8EF" transform="translate(0,0)"/>
<path d="" fill="#CFEDED" transform="translate(0,0)"/>
<path d="" fill="#D1F1EE" transform="translate(0,0)"/>
<path d="" fill="#DDE7EF" transform="translate(0,0)"/>
<path d="" fill="#D0F0EC" transform="translate(0,0)"/>
<path d="" fill="#E2E5EE" transform="translate(0,0)"/>
<path d="" fill="#D6EFF0" transform="translate(0,0)"/>
<path d="" fill="#DCE2E9" transform="translate(0,0)"/>
<path d="" fill="#7BE2CD" transform="translate(0,0)"/>
<path d="" fill="#D8DDE5" transform="translate(0,0)"/>
<path d="" fill="#98E5D6" transform="translate(0,0)"/>
<path d="" fill="#D3F2EF" transform="translate(0,0)"/>
<path d="" fill="#D7DEE6" transform="translate(0,0)"/>
<path d="" fill="#D2F0F0" transform="translate(0,0)"/>
<path d="" fill="#CEF1ED" transform="translate(0,0)"/>
<path d="" fill="#D2F0F0" transform="translate(0,0)"/>
<path d="" fill="#60DBBD" transform="translate(0,0)"/>
<path d="" fill="#98E4D6" transform="translate(0,0)"/>
<path d="" fill="#E1E8F3" transform="translate(0,0)"/>
<path d="" fill="#D7DDE7" transform="translate(0,0)"/>
<path d="" fill="#E1E9F1" transform="translate(0,0)"/>
<path d="" fill="#5FDABD" transform="translate(0,0)"/>
<path d="" fill="#E0E6EF" transform="translate(0,0)"/>
<path d="" fill="#D5F2F1" transform="translate(0,0)"/>
<path d="" fill="#98E7DB" transform="translate(0,0)"/>
<path d="" fill="#E2E7EF" transform="translate(0,0)"/>
<path d="" fill="#D6DEE7" transform="translate(0,0)"/>
<path d="" fill="#93E4D7" transform="translate(0,0)"/>
<path d="" fill="#A0EBDE" transform="translate(0,0)"/>
<path d="" fill="#D6DFE8" transform="translate(0,0)"/>
<path d="" fill="#A0ECDD" transform="translate(0,0)"/>
<path d="" fill="#DDE6EF" transform="translate(0,0)"/>
<path d="" fill="#98E2D7" transform="translate(0,0)"/>
<path d="" fill="#ADECE2" transform="translate(0,0)"/>
<path d="" fill="#D3DBE5" transform="translate(0,0)"/>
<path d="" fill="#96E4D6" transform="translate(0,0)"/>
<path d="" fill="#D4DBE1" transform="translate(0,0)"/>
<path d="" fill="#98E7D9" transform="translate(0,0)"/>
<path d="" fill="#D6DCE5" transform="translate(0,0)"/>
<path d="" fill="#89E3D6" transform="translate(0,0)"/>
<path d="" fill="#9EE5D9" transform="translate(0,0)"/>
<path d="" fill="#CAF1EF" transform="translate(0,0)"/>
<path d="" fill="#9BDFD9" transform="translate(0,0)"/>
<path d="" fill="#9DE3DB" transform="translate(0,0)"/>
<path d="" fill="#A4E6DC" transform="translate(0,0)"/>
<path d="" fill="#D6DDE3" transform="translate(0,0)"/>
<path d="" fill="#A5E9DD" transform="translate(0,0)"/>
<path d="" fill="#9AE2D8" transform="translate(0,0)"/>
<path d="" fill="#A0E5DA" transform="translate(0,0)"/>
<path d="" fill="#9CE1D7" transform="translate(0,0)"/>
<path d="" fill="#9CE6DB" transform="translate(0,0)"/>
<path d="" fill="#4DD8BA" transform="translate(0,0)"/>
<path d="" fill="#99E4D6" transform="translate(0,0)"/>
<path d="" fill="#46E2BD" transform="translate(0,0)"/>
<path d="" fill="#49E2C2" transform="translate(0,0)"/>
<path d="" fill="#C8EDEB" transform="translate(0,0)"/>
<path d="" fill="#4DE3C2" transform="translate(0,0)"/>
<path d="" fill="#C7EDEB" transform="translate(0,0)"/>
<path d="" fill="#9EE2DA" transform="translate(0,0)"/>
<path d="" fill="#4ADAB7" transform="translate(0,0)"/>
<path d="" fill="#4CE0C2" transform="translate(0,0)"/>
<path d="" fill="#54DEC1" transform="translate(0,0)"/>
<path d="" fill="#4CDEC0" transform="translate(0,0)"/>
<path d="" fill="#54D7BE" transform="translate(0,0)"/>
<path d="" fill="#4AE5C1" transform="translate(0,0)"/>
<path d="" fill="#4FE0C1" transform="translate(0,0)"/>
<path d="" fill="#C6EFEA" transform="translate(0,0)"/>
<path d="" fill="#49E0BE" transform="translate(0,0)"/>
<path d="" fill="#4BE3C0" transform="translate(0,0)"/>
<path d="" fill="#4CE0C2" transform="translate(0,0)"/>
<path d="" fill="#47E0BC" transform="translate(0,0)"/>
<path d="" fill="#4CE0C1" transform="translate(0,0)"/>
<path d="" fill="#AEECE0" transform="translate(0,0)"/>
<path d="" fill="#DBE0E8" transform="translate(0,0)"/>
<path d="" fill="#4AE0C3" transform="translate(0,0)"/>
<path d="" fill="#ADEBE1" transform="translate(0,0)"/>
<path d="" fill="#48DEC1" transform="translate(0,0)"/>
<path d="" fill="#4AE1C3" transform="translate(0,0)"/>
<path d="" fill="#DAE1E8" transform="translate(0,0)"/>
<path d="" fill="#4BE5C3" transform="translate(0,0)"/>
<path d="" fill="#C0EEE9" transform="translate(0,0)"/>
<path d="" fill="#46DFBE" transform="translate(0,0)"/>
<path d="" fill="#BDEEE8" transform="translate(0,0)"/>
<path d="" fill="#46E0BD" transform="translate(0,0)"/>
<path d="" fill="#DFE5EB" transform="translate(0,0)"/>
<path d="" fill="#47DEBF" transform="translate(0,0)"/>
<path d="" fill="#47E2C0" transform="translate(0,0)"/>
<path d="" fill="#49E0BE" transform="translate(0,0)"/>
<path d="" fill="#48E2C0" transform="translate(0,0)"/>
<path d="" fill="#4ADFBF" transform="translate(0,0)"/>
<path d="" fill="#DDE4EB" transform="translate(0,0)"/>
<path d="" fill="#4AE2C1" transform="translate(0,0)"/>
<path d="" fill="#49E0C0" transform="translate(0,0)"/>
<path d="" fill="#49DDBD" transform="translate(0,0)"/>
<path d="" fill="#49E0C0" transform="translate(0,0)"/>
<path d="" fill="#4BE1C0" transform="translate(0,0)"/>
<path d="" fill="#49E3C1" transform="translate(0,0)"/>
<path d="" fill="#C2EFE9" transform="translate(0,0)"/>
<path d="" fill="#48E6BF" transform="translate(0,0)"/>
<path d="" fill="#49E0BE" transform="translate(0,0)"/>
<path d="" fill="#C0F0EA" transform="translate(0,0)"/>
<path d="" fill="#49DDC0" transform="translate(0,0)"/>
<path d="" fill="#4FDCBE" transform="translate(0,0)"/>
<path d="" fill="#4EE2C2" transform="translate(0,0)"/>
<path d="" fill="#DCE2EA" transform="translate(0,0)"/>
<path d="" fill="#47DFBF" transform="translate(0,0)"/>
<path d="" fill="#4AE0BF" transform="translate(0,0)"/>
<path d="" fill="#50E1C6" transform="translate(0,0)"/>
<path d="" fill="#48E1BE" transform="translate(0,0)"/>
<path d="" fill="#BBEEE4" transform="translate(0,0)"/>
<path d="" fill="#E0E4EC" transform="translate(0,0)"/>
<path d="" fill="#A6ECE0" transform="translate(0,0)"/>
<path d="" fill="#BFEFE5" transform="translate(0,0)"/>
<path d="" fill="#B0EBDF" transform="translate(0,0)"/>
<path d="" fill="#C6F2E8" transform="translate(0,0)"/>
<path d="" fill="#BBEDE4" transform="translate(0,0)"/>
<path d="" fill="#46E1BF" transform="translate(0,0)"/>
<path d="" fill="#B4EBE1" transform="translate(0,0)"/>
<path d="" fill="#48E2BE" transform="translate(0,0)"/>
<path d="" fill="#48E0C2" transform="translate(0,0)"/>
<path d="" fill="#52DCBB" transform="translate(0,0)"/>
<path d="" fill="#C7F1E9" transform="translate(0,0)"/>
<path d="" fill="#51DABC" transform="translate(0,0)"/>
<path d="" fill="#4CE0C4" transform="translate(0,0)"/>
<path d="" fill="#59E0C7" transform="translate(0,0)"/>
<path d="" fill="#50E2C5" transform="translate(0,0)"/>
<path d="" fill="#53E4C4" transform="translate(0,0)"/>
<path d="" fill="#50DCBD" transform="translate(0,0)"/>
<path d="" fill="#55E3C4" transform="translate(0,0)"/>
<path d="" fill="#53DCBD" transform="translate(0,0)"/>
<path d="" fill="#51D9BA" transform="translate(0,0)"/>
<path d="" fill="#DEE3EC" transform="translate(0,0)"/>
<path d="" fill="#DDE5EC" transform="translate(0,0)"/>
<path d="" fill="#DEE3EC" transform="translate(0,0)"/>
<path d="" fill="#54DBBD" transform="translate(0,0)"/>
<path d="" fill="#5CDEC2" transform="translate(0,0)"/>
<path d="" fill="#60D9C2" transform="translate(0,0)"/>
<path d="" fill="#63DEC2" transform="translate(0,0)"/>
<path d="" fill="#74E5CC" transform="translate(0,0)"/>
<path d="" fill="#7AE1CC" transform="translate(0,0)"/>
<path d="" fill="#E1E7F0" transform="translate(0,0)"/>
<path d="" fill="#DFE4EC" transform="translate(0,0)"/>
<path d="" fill="#DEE4EB" transform="translate(0,0)"/>
<path d="" fill="#CFE2E5" transform="translate(0,0)"/>
<path d="" fill="#DDE4EB" transform="translate(0,0)"/>
<path d="" fill="#DDE2EA" transform="translate(0,0)"/>
<path d="" fill="#DCE1EA" transform="translate(0,0)"/>
<path d="" fill="#DDE2EA" transform="translate(0,0)"/>
<path d="" fill="#DEE3EA" transform="translate(0,0)"/>
<path d="" fill="#DDE1E9" transform="translate(0,0)"/>
<path d="" fill="#DAE1E8" transform="translate(0,0)"/>
<path d="" fill="#DBE1EC" transform="translate(0,0)"/>
<path d="" fill="#D8E1E7" transform="translate(0,0)"/>
<path d="" fill="#DCE1E9" transform="translate(0,0)"/>
<path d="" fill="#DBE1E8" transform="translate(0,0)"/>
<path d="" fill="#DCE0E7" transform="translate(0,0)"/>
<path d="" fill="#DBE0E8" transform="translate(0,0)"/>
<path d="" fill="#DCE1EA" transform="translate(0,0)"/>
<path d="" fill="#DCE0E9" transform="translate(0,0)"/>
<path d="" fill="#DCE0E7" transform="translate(0,0)"/>
<path d="" fill="#DCDFE6" transform="translate(0,0)"/>
<path d="" fill="#DCE1E8" transform="translate(0,0)"/>
<path d="" fill="#DBDEE5" transform="translate(0,0)"/>
<path d="" fill="#DADFE8" transform="translate(0,0)"/>
<path d="" fill="#DBDFE7" transform="translate(0,0)"/>
<path d="" fill="#D9E1E9" transform="translate(0,0)"/>
<path d="" fill="#DCE2E9" transform="translate(0,0)"/>
<path d="" fill="#DCE1EA" transform="translate(0,0)"/>
<path d="" fill="#DAE1E9" transform="translate(0,0)"/>
<path d="" fill="#DBE1E8" transform="translate(0,0)"/>
<path d="" fill="#DBE1E9" transform="translate(0,0)"/>
<path d="" fill="#DDE1E8" transform="translate(0,0)"/>
<path d="" fill="#DBE1EB" transform="translate(0,0)"/>
<path d="" fill="#DBE1E7" transform="translate(0,0)"/>
<path d="" fill="#DBE1E9" transform="translate(0,0)"/>
<path d="" fill="#DCE0E8" transform="translate(0,0)"/>
<path d="" fill="#DCDFE8" transform="translate(0,0)"/>
<path d="" fill="#DCE0E8" transform="translate(0,0)"/>
</svg>
